<svg xmlns="http://www.w3.org/2000/svg" viewBox="0 0 45 45">
  <filter id="neon-glow">
    <feGaussianBlur stdDeviation="3" result="glow"/>
    <feComposite in="SourceGraphic" in2="glow" operator="over" result="composite"/>
    <feBlend in="SourceGraphic" in2="composite" mode="screen"/>
  </filter>
  <path d="M9 36c3.4-.97 10.1.43 13.5-2 3.4 2.43 10.1 1.03 13.5 2 0 0 1.65.54 3 2-.68.97-1.65.99-3 .5-3.4-.97-10.1.46-13.5-1-3.4 1.46-10.1.03-13.5 1-1.35.49-2.32.47-3-.5 1.35-1.94 3-2 3-2zm6-4c2.5 2.5 12.5 2.5 15 0 .5-1.5 0-2 0-2 0-2.5-2.5-4-2.5-4 5.5-1.5 6-11.5-5-15.5-11 4-10.5 14-5 15.5 0 0-2.5 1.5-2.5 4 0 0-.5.5 0 2z" 
        fill="#00FFC2" 
        stroke="#00FFC2"
        stroke-width="1.5"
        stroke-linecap="round"
        filter="url(#neon-glow)">
    <animate attributeName="opacity" values="1;0.7;1" dur="2s" repeatCount="indefinite"/>
  </path>
</svg>